<?xml version="1.0" encoding="UTF-8" standalone="yes"?>
<svg version="1.1" id="Layer_1" xmlns="http://www.w3.org/2000/svg" xmlns:xlink="http://www.w3.org/1999/xlink" x="0px" y="0px" viewBox="0 0 747.333 160.809" enable-background="new 0 0 747.333 160.809" xml:space="preserve" preserveAspectRatio="xMidYMid meet">
  <g>
    <path fill="#58595B" d="M140.081,148.117c-8.1,5.256-17.314,7.934-26.795,8.128c-21.859,0.452-43.74,0.407-65.602,0.054c-8.433-0.134-15.873-3.563-20.719-11.01c-3.223-4.952-4.283-10.493-3.421-16.344c0.986-6.691,4.188-12.449,7.582-18.177C43.78,89.412,56.312,67.977,68.897,46.581c0.568-0.962,1.188-1.904,1.864-2.793c3.871-5.088,9.573-5.125,13.174,0.153c2.516,3.688,4.613,7.667,6.862,11.538c9.971,17.153,19.906,34.328,29.908,51.464c3.16,5.409,2.799,9.633-1.528,12.58c-1.182,0.807-2.802,1.348-4.225,1.354c-19.083,0.115-41.153,0.153-61.832,0.159l9.459-15.562c10.482,0.188,23.212,0.161,32.877,0.055c1.463-0.019,3.726-0.493,4.16-1.435c0.495-1.07-0.37-3.059-1.123-4.372c-5.81-10.161-11.736-20.25-17.624-30.365c-0.409-0.703-0.77-1.438-1.217-2.118c-1.735-2.637-3.089-2.72-4.751-0.02c-2.935,4.764-5.691,9.639-8.524,14.466c-8.396,14.302-16.835,28.579-25.145,42.931c-1.099,1.9-1.815,4.126-2.241,6.29c-0.82,4.157,1.457,7.809,5.502,8.902c2.428,0.657,4.974,1.219,7.469,1.232c18.309,0.099,36.621,0.129,54.929,0.008c7.661-0.053,15.318-1.021,22.191-4.577c7.529-3.896,12.412-10.021,13.182-18.881c0.718-8.279-1.863-15.779-5.825-22.739c-10.673-18.746-21.564-37.368-32.488-55.968c-3.636-6.194-8.202-11.606-14.522-15.354c-10.061-5.968-18.196-4.762-27.644,2.317c-5.891,4.414-9.809,10.55-13.504,16.787c-8.247,13.919-16.478,27.847-24.626,41.823c-1.63,2.798-3.132,5.727-4.224,8.765c-1.665,4.63-0.473,7.563,3.284,10.681c0.571,0.461,1.532,0.847,1.732,0.878l-8.019,13.41c-0.587-0.187-1.714-0.633-2.414-1.128c-3.922-2.781-5.995-5.133-8.939-10.575c0.158,0.239-4.356-9.141-0.637-17.925c3.888-9.164,9.277-17.627,14.215-26.269c6.308-11.04,12.852-21.947,19.475-32.8c5.792-9.49,13.346-17.429,23.646-21.814c16.357-6.963,30.94-3.011,43.891,8.595c8.05,7.216,12.978,16.636,18.313,25.76c7.292,12.472,14.677,24.896,21.599,37.572c3.882,7.106,7.792,14.41,10.149,22.098C161.223,119.64,156.483,137.476,140.081,148.117z M5.075,106.487c-0.013-0.021-0.061-0.111-0.15-0.278C4.975,106.302,5.025,106.393,5.075,106.487z"/>
    <path fill="#58595B" d="M743.786,98.7v6.075h-31.553V48.683h30.305v6.075h-23.061v17.726h21.811v5.992h-21.811v20.223L743.786,98.7L743.786,98.7z M642.389,100.531l31.137-45.521v-0.25h-28.473v-6.075h37.879v4.411l-30.969,45.355V98.7h31.387v6.075h-40.961V100.531L642.389,100.531z M606.344,48.683h7.242v56.091h-7.242V48.683z M566.723,80.141c-0.418-7.823-0.916-17.227-0.834-24.218h-0.25c-1.914,6.575-4.244,13.565-7.074,21.306l-9.906,27.213h-5.494l-9.076-26.714c-2.662-7.905-4.91-15.146-6.492-21.805h-0.166c-0.168,6.991-0.584,16.395-1.082,24.8l-1.5,24.052h-6.91l3.914-56.091h9.24l9.574,27.13c2.33,6.908,4.244,13.065,5.662,18.892h0.248c1.416-5.658,3.414-11.817,5.91-18.892l9.992-27.13h9.238l3.496,56.091h-7.076L566.723,80.141z M479.563,48.683h7.24v56.091h-7.24V48.683z M436.194,104.775h-7.326V54.843h-17.068v-6.158h41.543v6.158h-17.148V104.775L436.194,104.775z M367.014,82.804c-2.165,0-4.163-0.083-5.828-0.499v22.47h-7.242V49.349c3.496-0.582,8.074-1.082,13.902-1.082c7.161,0,12.405,1.665,15.735,4.66c3.08,2.664,4.912,6.741,4.912,11.734c0,5.077-1.5,9.071-4.33,11.983C380.333,80.723,374.09,82.804,367.014,82.804z M368.014,54.01c-3.164,0-5.578,0.25-6.826,0.582v21.805c1.581,0.416,3.579,0.583,5.993,0.583c8.742,0,14.07-4.245,14.07-11.983C381.25,57.589,376.006,54.01,368.014,54.01z M302.748,82.804c-2.165,0-4.163-0.083-5.828-0.499v22.47h-7.243V49.349c3.497-0.582,8.076-1.082,13.903-1.082c7.16,0,12.404,1.665,15.734,4.66c3.08,2.664,4.911,6.741,4.911,11.734c0,5.077-1.499,9.071-4.329,11.983C316.068,80.723,309.824,82.804,302.748,82.804z M303.747,54.01c-3.164,0-5.578,0.25-6.827,0.582v21.805c1.582,0.416,3.58,0.583,5.994,0.583c8.742,0,14.069-4.245,14.069-11.983C316.984,57.589,311.739,54.01,303.747,54.01z M247.724,87.132h-19.897l-5.828,17.644h-7.493l19.064-56.091h8.742l19.147,56.091h-7.742L247.724,87.132z M240.73,65.329c-1.249-3.662-2.081-6.99-2.914-10.236h-0.166c-0.833,3.329-1.749,6.741-2.831,10.153l-5.495,16.229h16.9L240.73,65.329z"/>
  </g>
</svg>