<?xml version="1.0" encoding="utf-8"?>
<!-- Generator: Adobe Illustrator 21.0.2, SVG Export Plug-In . SVG Version: 6.00 Build 0)  -->
<!DOCTYPE svg PUBLIC "-//W3C//DTD SVG 1.1//EN" "http://www.w3.org/Graphics/SVG/1.1/DTD/svg11.dtd">
<svg version="1.1" id="Layer_1" xmlns="http://www.w3.org/2000/svg" xmlns:xlink="http://www.w3.org/1999/xlink" x="0px" y="0px"
	 viewBox="0 0 1670 500" style="enable-background:new 0 0 1670 500;" xml:space="preserve">
<style type="text/css">
	.st0{fill:#E22319;}
</style>
<g>
	<path class="st0" d="M1226.1,255.3c13.2-11.8,26.5-23.5,39.7-35.3c0-33,0-66,0-99c-13.2,0-26.5,0-39.8,0
		C1226.1,165.8,1225.9,210.6,1226.1,255.3z"/>
	<path class="st0" d="M385.4,213.6c-12.4-13.4-29.6-21.7-47.5-24.8c-18.3-2.9-37.6-1.3-54.7,6.2c-15.7,6.6-29.1,18.5-37.5,33.3
		c-9-18.4-25.9-32.8-45.7-38.2c-9.7-2.9-19.9-3-29.9-2.4c-17.6,1.6-34.6,10.2-45.4,24.2c-0.4-30.1-0.1-60.1-0.2-90.2
		c-13.2,0-26.3,0-39.5,0c0,75.9,0,151.8,0,227.8c12.5,0,25,0,37.5,0c0.1-8-0.1-16.1,0.1-24.1c2.6,3.6,5,7.5,8.3,10.6
		c8.1,8.7,19.6,13.5,31.1,15.8c12.6,2.3,25.7,1.8,38.1-1.4c19.7-5.3,36.8-19.2,45.9-37.6c8.3,14.4,21.3,26,36.6,32.6
		c18.2,8.1,38.9,9.7,58.3,5.9c17.6-3.6,34.5-12.5,46.3-26.2c13.1-15.1,20.2-35.2,19.6-55.1C407.3,249.3,399.4,228.7,385.4,213.6z
		 M199.7,306.7c-16.6,14.5-43.8,14.5-60.3,0c-18.8-15.8-21.3-46.6-6.5-65.9c6.9-9.1,17.4-15.4,28.6-17.1c10.4-1.4,21.5-0.3,30.7,5.1
		c11.8,6.4,20.1,18.4,22.6,31.5C218.2,276.9,212.8,295.6,199.7,306.7z M361.6,293.6c-5.3,10-14.6,18-25.4,21.6
		c-15.4,5-33.5,2.2-45.7-8.7c-18.3-15.7-20.9-45.5-6.9-64.8c6.8-9.4,17.3-16,28.8-17.9c10-1.4,20.5-0.6,29.5,4.2
		c11,5.4,19.4,15.5,22.9,27.3C368.9,267.8,367.6,281.9,361.6,293.6z"/>
	<path class="st0" d="M546.5,309.7c-6.1-4.9-7.9-13.2-8.2-20.6c0-22.4,0-44.9,0-67.3c9.8,0,19.5,0,29.2,0c0-12.1,0-24.2,0-36.2
		c-9.7,0-19.5,0-29.2,0c0-21.2,0-42.5,0-63.7c-13.2,0-26.5,0-39.7,0c0,21.2,0,42.5,0,63.7c-12.8,0-25.6,0-38.5,0
		c0-21.2,0-42.5,0-63.8c-13.2,0-26.5,0-39.8,0c0,21.3,0,42.7,0,64c-18.6,0.1-37.1-0.2-55.7,0.2c1.3,0.6,2.6,1.1,3.9,1.7
		c16.4,6,29.5,19.1,37.6,34.4c4.7,0,9.5,0,14.2,0c0,16.7,0,33.3,0,50c0,11.3-0.3,22.7,2.1,33.8c3,14.9,11.3,29.4,24.6,37.3
		c12.7,7.8,28.2,9.2,42.8,7.7c0.1-12,0-24,0-36.1c-7.1,0.2-14.8-0.2-20.7-4.6c-5.1-3.7-7.5-10-8.3-16c-0.9-7.7-0.6-15.5-0.7-23.2
		c0-16.4,0-32.8,0-49.2c12.8,0,25.7,0,38.5,0c0,23.1,0,46.2,0,69.3c0.6,18.4,7.1,37.9,22.3,49.2c13.2,10.2,30.7,12.2,46.9,10.6
		c0.2-12,0-24.1,0.1-36.1C560.4,314.9,552.4,314.5,546.5,309.7z"/>
	<path class="st0" d="M580.2,121.8c0,75.9,0,151.8,0,227.8c13.2,0,26.3,0,39.5,0c0-75.9,0-151.8,0-227.8
		C606.6,121.8,593.4,121.8,580.2,121.8z"/>
	<path class="st0" d="M1585,314.8c-7.7,0.3-16.1-0.4-22.1-5.8c-5.7-5.3-7.2-13.5-7.4-21c0-22.1,0-44.2,0-66.3c9.8,0,19.5,0,29.2,0
		c0-12.1,0-24.2,0-36.3c-9.8,0-19.5,0-29.2,0c0-21.2,0-42.5,0-63.7c-13.2,0-26.5,0-39.7,0c0,21.3,0,42.7,0,64
		c-16.8,0-33.6-0.1-50.4,0c16.2,6.7,29.4,20,36.1,36.2c4.7,0.1,9.5,0,14.2,0c0,21,0,42,0,63c-0.2,11.3,1.5,22.8,5.8,33.4
		c5.1,12.4,14.9,22.9,27.3,28c11.3,4.9,23.9,5.4,36.1,4.4C1585,338.8,1585,326.8,1585,314.8z"/>
	<path class="st0" d="M1375.8,185.5c-19.2-0.1-38.5,0-57.7-0.1c-14.5,15.1-29.8,29.3-44.9,43.7c-28.9,26.9-57.8,53.8-88.9,78.1
		c-8.9,7.5-20.9,10.7-32.4,9.7c-10.4-0.7-20.1-6.3-27-13.9c-16.6-18.1-15.9-49.2,1.6-66.5c9.7-9.6,23.9-14.6,37.4-12.7
		c9.9,1.8,18.2,8.4,25,15.4c9.2-9.2,18.4-18.4,27.6-27.6c-6-6.3-12.9-11.8-20.8-15.6c-26.1-12.6-58.2-10.7-83.2,3.5
		c-12.5,7.1-22.7,17.9-29.6,30.5c-7.8-14.5-20.1-26.4-35-33.3c-18.3-8.8-39.3-11-59.2-7.5c-15.5,2.9-30.5,9.7-42.1,20.5
		c-14.1,13-23.1,31.2-25.1,50.2c-1.7,16.7,0.4,34.1,8.2,49.1c7.7,15.5,20.7,28.3,36.4,35.7c27.1,12.8,60.5,12,86.7-2.7
		c12.8-7.1,23.2-18,30.2-30.8c5.7,10.4,13.5,19.6,23.2,26.4c17.2,12.1,38.9,17.4,59.8,15.7c12.5-1.2,24.5-5.5,35.2-11.9
		c6.3-3.8,12.1-8.6,17.8-13.2c16.1-13.3,31.7-27.3,47.2-41.3c16.4,20.8,32.4,41.9,48.8,62.6c16.9-0.1,33.9,0,50.8-0.1
		c-23.3-29.9-46.8-59.6-70.1-89.4C1322.7,235.5,1349.3,210.6,1375.8,185.5z M1047.8,293.8c-6.7,13-20.1,22.4-34.7,23.8
		c-12.6,1.6-25.9-1.8-35.7-10c-17.7-14.4-21.4-41.8-10.3-61.3c6-10.6,16.6-18.5,28.4-21.4c11.2-2.5,23.5-1.5,33.6,4.1
		c9.1,4.9,16.5,13,20.4,22.5C1055.1,264.9,1054.5,280.8,1047.8,293.8z"/>
	<path class="st0" d="M747.6,195.5c-14.7-7.6-31.8-9.8-48-7.8c-20.8,2.7-40.3,14.2-52.9,31c-19.2,25-22.4,60.9-8.6,89.1
		c9,18.6,25.6,33.1,44.9,40.2c30.6,11.6,67.6,5,91.5-17.6c-8.3-9-16.7-18.1-25.1-27c-7.3,7-16,13.3-26.3,14.5
		c-13,1.5-27.2,0-38.2-7.8c-8.5-5.9-13.6-15.7-15.3-25.7c39.9,0,79.8,0,119.7,0c1.8-18.6-0.6-37.9-8.9-54.9
		C773.4,215.2,762,202.8,747.6,195.5z M669.2,252.5c1.5-9.3,5.5-18.4,12.6-24.7c9.6-8.9,23.6-11.4,36.3-9.5
		c8.9,1.2,17.5,5.4,23.3,12.3c5.2,6.2,8,14,9.1,22C723.4,252.5,696.3,252.5,669.2,252.5z"/>
	<path class="st0" d="M1476.6,207.3c-25.6-24.6-68.4-26.9-97.6-7.3c-18,11.7-30.7,30.9-35.2,51.8c-4.1,19.6-1.7,40.7,7.9,58.4
		c7.9,15.1,21,27.3,36.3,34.7c31.8,15.7,73.1,10.1,98.8-14.6c-8.5-8.9-16.8-17.9-25.1-27c-5.2,4.8-10.6,9.5-17.2,12.2
		c-7.4,3.1-15.6,3.3-23.5,2.7c-9.9-0.8-20.1-4-27.5-11c-6.5-5.9-10.2-14.3-11.7-22.8c39.8,0,79.7,0,119.5,0
		C1504.6,257,1497,227,1476.6,207.3z M1381.6,252.5c1.3-7.3,3.9-14.6,8.6-20.4c7.5-9.6,19.9-14.4,31.8-14.3
		c10.5-0.2,21.4,2.7,29.2,10.1c6.9,6.4,10.5,15.5,11.7,24.7C1435.8,252.5,1408.7,252.5,1381.6,252.5z"/>
	<path class="st0" d="M948.3,193.3c-14.2-5.5-29.8-6.7-44.8-4.7c-11.9,1.5-23,7.9-30,17.7c0-5.2,0-10.4,0-15.5
		c-13.2,0-26.5,0-39.7,0c0,52.7,0,105.3,0,158c13.2,0,26.5,0,39.7,0c0-28.2,0-56.5,0-84.8c0.2-13.9,7.8-27.5,20-34.3
		c8-4.8,17.6-5.4,26.7-5.1C926.8,212,936.7,201.4,948.3,193.3z"/>
</g>
</svg>
