<?xml version="1.0" encoding="utf-8"?>
<!-- Generator: Adobe Illustrator 18.1.1, SVG Export Plug-In . SVG Version: 6.00 Build 0)  -->
<svg version="1.1" id="Layer_1" xmlns="http://www.w3.org/2000/svg" xmlns:xlink="http://www.w3.org/1999/xlink" x="0px" y="0px"
	 viewBox="0 0 208 73" enable-background="new 0 0 208 73" xml:space="preserve">
<rect x="169" y="16.8" fill="#EE2A7B" width="27.6" height="10.9"/>
<rect x="169" y="31.4" fill="#EE2A7B" width="23.7" height="10.9"/>
<rect x="169" y="45.2" fill="#EE2A7B" width="11.4" height="10.9"/>
<polyline fill="#EE2D7B" points="13.5,18.2 42.3,18.2 42.3,25.7 21.9,25.7 21.9,33.8 39.9,33.8 39.9,41.3 21.9,41.3 21.9,56 
	13.5,56 13.5,18.2 "/>
<path fill="#EE2D7B" d="M45.4,41.7v-0.1c0-8.3,5.9-15.1,14.3-15.1c9.7,0,14.1,7.5,14.1,15.7c0,0.6-0.1,1.4-0.1,2.2H53.5
	c0.8,3.7,3.4,5.7,7.1,5.7c2.8,0,4.8-0.9,7-3l4.7,4.2c-2.7,3.3-6.6,5.4-11.8,5.4C51.8,56.6,45.4,50.5,45.4,41.7 M65.8,39.2
	c-0.5-3.7-2.6-6.2-6.1-6.2c-3.4,0-5.6,2.4-6.3,6.2H65.8z"/>
<path fill="#EE2D7B" d="M80.8,47.8V34h-3.5v-7h3.5v-7.4H89V27h6.8v7H89v12.4c0,1.9,0.8,2.8,2.6,2.8c1.5,0,2.9-0.4,4-1v6.6
	c-1.7,1-3.7,1.7-6.5,1.7C84.2,56.4,80.8,54.5,80.8,47.8"/>
<path fill="#EE2D7B" d="M99.1,41.7v-0.1c0-8.3,6.3-15.1,15.2-15.1c5.5,0,8.9,1.8,11.6,4.9l-5,5.4c-1.8-1.9-3.7-3.2-6.6-3.2
	c-4.1,0-7,3.6-7,7.9v0.1c0,4.4,2.9,8,7.3,8c2.8,0,4.6-1.2,6.6-3.1l4.8,4.9c-2.8,3.1-6,5.3-11.8,5.3C105.5,56.6,99.1,49.9,99.1,41.7"
	/>
<path fill="#EE2D7B" d="M130.8,16.5h8.2v14.6c1.9-2.4,4.3-4.6,8.5-4.6c6.2,0,9.8,4.1,9.8,10.7V56h-8.2V39.8c0-3.9-1.8-5.9-5-5.9
	c-3.1,0-5.1,2-5.1,5.9V56h-8.2V16.5"/>
</svg>
