<svg xmlns="http://www.w3.org/2000/svg" id="Layer_1" viewBox="0 0 1768.925 577.22498" width="1768.925" height="577.225"><style id="style2">.st0{fill:#363964}</style><path class="st0" d="M114 0c-.1 24.9 0 49.9 0 74.8h72.9V.1C162.6 0 138.3 0 114 0zm-.1 467.1c-.3 7.7-3.2 15.2-8 21.3-6.7 8.6-17.4 14-28.2 14.1-25.9.1-51.8-.1-77.7.1 12.6 24.8 25 49.8 37.5 74.6 14.4 0 28.8.1 43.2-.1 21.7-.3 43.2-7.5 60.9-20.1 27.2-19.2 44.6-51.5 45.2-84.9V130.3h-72.9zm410.6-313.6c-16.8-14.9-39.2-23.3-61.7-23.1H263.3c12.1 24.2 24.3 48.3 36.3 72.6 48.1.1 96.1 0 144.2 0 9.3.1 18.7 3.4 25.5 9.8 7.7 6.9 12.2 17 12.3 27.3v22.4H351.9c-6.7 0-13.4-.2-20.1.4-11.7 1.1-23.3 4.1-34 9.1-22.8 10.6-41.4 29.9-50.9 53.1-8.4 20.2-10 43-4.5 64.2 6.4 25.5 23.4 48 45.9 61.6 16.1 9.8 34.9 14.8 53.7 14.7h214.5V223.3c-.1-26.5-12.1-52.6-32-69.8zm-43 239.3H343.7c-8 .1-16-3.3-21.5-9-7.2-7.3-10.2-18.6-7.3-28.5 3.3-12.3 15.1-21.7 27.9-21.8h138.8c-.1 19.7-.1 39.5-.1 59.3zm595.2 33.5c-.2-11.4.1-22.7.1-34.1-.6-15 .3-30-.2-45 .3-23.7-.2-47.4.2-71-.5-14.1.6-28.3-.4-42.4-1.3-17.6-6.9-34.9-16.2-50-14.6-23.8-38.3-41.8-65.1-49.2-11.1-3.2-22.8-4.4-34.4-4.2H628.9v335.2h74.7V205h111.8c.1 86.9 0 173.7 0 260.6h74.7V205h74.5c11 0 21.8 5.1 28.7 13.6 5.5 6.6 8.5 15.1 8.6 23.6v223.4c24.9 0 49.9.1 74.8 0-.5-13.2.2-26.3 0-39.3zM1420.8 227c-2.6-19.4-10.5-38-22.5-53.5-20.4-26.5-53.1-43-86.6-43.2-55.3-.1-110.7 0-166 0v428.2h72.7v-93c31.4-.1 62.9 0 94.3 0 17.4-.5 34.7-5 50-13.3 17.9-9.6 33.1-24.2 43.5-41.6 10.6-17.5 15.8-38 15.7-58.4v-88.1c-.1-12.3.5-24.8-1.1-37.1zm-72 128.2c-.2 18.9-17.2 35.6-36 35.7-31.5.1-62.9 0-94.4 0v-186h84.2c6.7.1 13.5-.5 19.9 1.7 14.9 4.4 26.2 19 26.3 34.6 0 38 .1 76 0 114zm420.1-91.9c-.1-11.7.4-23.4-1-35-2.4-19.3-10-38-21.8-53.5-20.3-27.1-53.5-44.1-87.4-44.3-55.4 0-110.9-.1-166.3 0v428.1h73c0-31 .1-61.9-.1-92.9 24.8-.2 49.5 0 74.3-.1 10.8-.2 21.7.6 32.5-1.1 31.6-4.2 60.9-22.8 78.3-49.5 11.9-17.9 18.2-39.3 18.4-60.8.2-30.3.1-60.6.1-90.9zm-73.1 92c-.4 18.9-17.2 35.6-36.1 35.6-31.4.1-62.8 0-94.2 0v-186h90.2c7.4-.3 14.9 1.2 21.3 4.9 11.5 6.4 19 19.2 18.9 32.3 0 37.8 0 75.5-.1 113.2z" id="path4" fill="#363964"/></svg>