<svg id="Layer_1" data-name="Layer 1" xmlns="http://www.w3.org/2000/svg" xmlns:xlink="http://www.w3.org/1999/xlink" viewBox="0 0 109.01 29.95"><defs><style>.cls-1{fill:#fff;}.cls-2{fill:#23a4df;}.cls-3{mask:url(#mask);}</style><mask id="mask" x="99.47" y="8.87" width="9.54" height="16" maskUnits="userSpaceOnUse"><g transform="translate(0 0)"><g id="mask-2"><polygon id="path-1" class="cls-1" points="109.01 24.87 109.01 8.87 99.47 8.87 99.47 24.87 109.01 24.87"/></g></g></mask></defs><title>layer</title><g id="DESIGN"><g id="HOME"><g id="MENU_DEFAULT_DARK" data-name="MENU DEFAULT DARK"><g id="layer-logo"><g id="Page-1"><polygon id="Fill-1" class="cls-2" points="39.1 24.86 52.52 24.87 52.52 21.96 42.21 21.96 42.21 3.48 39.1 3.48 39.1 24.86"/><g id="menu_logo" data-name="menu logo"><path id="Fill-2" class="cls-2" d="M63.57,18.64c0,2.54-1.67,3.93-4.08,3.93-1.83,0-3-.81-3-2.38,0-1.41.78-1.93,2.94-2.32l0.25,0,0.43-.07,0.43-.07a9.51,9.51,0,0,0,3-.89v1.85Zm0.06,6.18h2.88V13.7c0-3.12-2.24-4.84-5.9-4.84a10.94,10.94,0,0,0-6.28,1.94l-0.16.12,1.36,2.26,0.2-.16a8,8,0,0,1,4.74-1.53c1.85,0,3.1.63,3.1,1.85a1.57,1.57,0,0,1-1.18,1.49,11.46,11.46,0,0,1-2.85.62h0l-0.6.09a8.73,8.73,0,0,0-3.42,1.08,4,4,0,0,0-1.94,3.69c0,3,2.17,4.84,5.57,4.84a5.81,5.81,0,0,0,4.53-1.81v1.46Z" transform="translate(0 0)"/><path id="Fill-4" class="cls-2" d="M85.77,15.29a4.19,4.19,0,0,1,4.36-3.85,4,4,0,0,1,4.28,3.85H85.77Zm11.6,2.37,0-.2a11.88,11.88,0,0,0,.06-1.19,7,7,0,0,0-7.29-7.41c-4.57,0-7.56,3.4-7.56,8.19s3,8.11,7.77,8.11a8.08,8.08,0,0,0,6.41-2.88l0.14-.16-2-1.82-0.15.18a5.26,5.26,0,0,1-4.22,2,4.61,4.61,0,0,1-4.82-4.79H97.37Z" transform="translate(0 0)"/><g id="Group-8"><g class="cls-3"><path id="Fill-6" class="cls-2" d="M109,9.52l-0.13-.09a4.18,4.18,0,0,0-2.21-.56,5.54,5.54,0,0,0-4.26,2V9.24H99.47V24.87h2.94V16.74c0-3.17,1.63-5.06,3.91-5.06a3.75,3.75,0,0,1,1.73.38l0.25,0.15Z" transform="translate(0 0)"/></g></g><path id="Fill-9" class="cls-2" d="M71,9.24H67.63l5.51,14.85-0.62,1.67a2.84,2.84,0,0,1-.8,1.2,2.62,2.62,0,0,1-1.43.29H69.11v2.71h1.47A5.25,5.25,0,0,0,74,28.85,4.76,4.76,0,0,0,75.31,27L82.53,9.54l0.13-.31H79.45L75,20.18Z" transform="translate(0 0)"/><path id="Fill-11" class="cls-2" d="M25,22.81A2.2,2.2,0,0,1,22.81,25H19.45A16.45,16.45,0,0,1,3,8.55V5.19A2.2,2.2,0,0,1,5.19,3H22.81A2.2,2.2,0,0,1,25,5.19V22.81ZM22.51,0h-17A5.51,5.51,0,0,0,0,5.49v17A5.51,5.51,0,0,0,5.49,28h17A5.51,5.51,0,0,0,28,22.51v-17A5.51,5.51,0,0,0,22.51,0h0Z" transform="translate(0 0)"/></g></g></g></g></g></g></svg>