<?xml version="1.0" encoding="utf-8"?>
<!-- Generator: Adobe Illustrator 19.2.1, SVG Export Plug-In . SVG Version: 6.00 Build 0)  -->
<svg version="1.1" id="Layer_1" xmlns="http://www.w3.org/2000/svg" xmlns:xlink="http://www.w3.org/1999/xlink" x="0px" y="0px"
	 viewBox="0 0 294 47.5" style="enable-background:new 0 0 294 47.5;" xml:space="preserve">
<style type="text/css">
	.st0{fill:#172E4B;}
	.st1{fill:#E62D56;}
</style>
<title>mparticle</title>
<g>
	<g>
		<path class="st0" d="M114.6,13c-3.6,0-7,1.9-9,4.9c-2-3-5.4-4.8-9-4.9c-6,0-10.8,4.8-10.8,10.8v12.4l0,0c0,1,0.8,1.8,1.8,1.8
			s1.8-0.8,1.8-1.8l0,0V23.5c0-3.9,3.1-7,6.9-7.1c2,0,3.8,0.8,5.2,2.2c1.3,1.3,2.1,3.1,2.2,5V36l0,0v0.1c0,1,0.8,1.8,1.8,1.8
			s1.8-0.8,1.8-1.8l0,0V23.8c0-3.9,3.2-7.1,7.1-7.1s7.1,3.2,7.1,7.1v12.5l0,0v0.3c0.1,0.8,0.9,1.4,1.7,1.4c1,0,1.7-0.8,1.8-1.8l0,0
			V23.9c0.5-5.5-3.7-10.4-9.2-10.9C115.2,13,114.9,13,114.6,13z M88.9,37.5c-0.3,0.3-0.8,0.5-1.2,0.5c-0.5,0-0.9-0.2-1.2-0.5
			c-0.3-0.3-0.5-0.8-0.5-1.2l0,0c0,0.5,0.2,0.9,0.5,1.2c0.3,0.3,0.8,0.5,1.2,0.5C88.1,38,88.6,37.8,88.9,37.5
			c0.4-0.3,0.6-0.7,0.5-1.2l0,0C89.3,36.7,89.1,37.1,88.9,37.5L88.9,37.5z M89.3,36.2L89.3,36.2L89.3,36.2z M89.4,23
			c0-0.5,0.1-0.9,0.3-1.4C89.5,22.1,89.4,22.5,89.4,23z M90.2,20.3c0.2-0.4,0.5-0.8,0.8-1.1C90.7,19.5,90.4,19.9,90.2,20.3
			L90.2,20.3z M96.5,16.5c-1.4,0-2.8,0.4-4,1.2C93.7,17,95.1,16.6,96.5,16.5c1.4,0,2.8,0.4,4,1.2C99.3,17,98,16.6,96.5,16.5
			L96.5,16.5z M102.2,19.2c0.9,1.1,1.5,2.5,1.6,3.9C103.7,21.7,103.1,20.3,102.2,19.2L102.2,19.2z M106.8,37.5
			c-0.3,0.3-0.8,0.5-1.2,0.5c-0.5,0-0.9-0.2-1.2-0.5c-0.3-0.3-0.5-0.8-0.5-1.2l0,0c0,0.5,0.2,0.9,0.5,1.2c0.3,0.3,0.8,0.5,1.2,0.5
			C106,38,106.4,37.8,106.8,37.5c0.3-0.3,0.5-0.8,0.5-1.2l0,0C107.3,36.8,107.1,37.2,106.8,37.5L106.8,37.5z M107.3,23.8L107.3,23.8
			c0-0.5,0-1,0.1-1.5C107.3,22.8,107.3,23.3,107.3,23.8L107.3,23.8z M118.5,17.7c-2.5-1.6-5.6-1.6-8.1,0c-0.4,0.2-0.8,0.6-1.1,0.9
			c0.3-0.4,0.7-0.7,1.1-0.9c1.2-0.8,2.6-1.2,4-1.2C115.8,16.5,117.2,16.9,118.5,17.7c0.3,0.2,0.7,0.6,1,0.9
			C119.2,18.3,118.8,18,118.5,17.7L118.5,17.7z M121.7,23.8L121.7,23.8z M121.8,36.6v-0.1l0,0V36.6c0,0.1,0,0.3,0.1,0.3
			C121.8,36.7,121.8,36.7,121.8,36.6L121.8,36.6z M124.7,37.5c-0.3,0.3-0.8,0.5-1.2,0.5c-0.5,0-1-0.3-1.3-0.7
			c0.3,0.4,0.8,0.7,1.3,0.7c0.9,0,1.7-0.8,1.8-1.8l0,0C125.2,36.8,125,37.2,124.7,37.5L124.7,37.5z"/>
		<path class="st0" d="M239.6,16.4c2.5,0.1,4.9,1.1,6.7,2.8l0.1,0.1l0,0c0.3,0.3,0.8,0.4,1.2,0.4c1,0,1.7-0.8,1.8-1.7
			c0-0.5-0.2-1-0.5-1.4c0-0.1-0.1-0.1-0.1-0.3c-2.4-2.4-5.7-3.8-9.1-3.8c-6.9,0.1-12.5,5.8-12.4,12.8c-0.1,6.9,5.5,12.5,12.4,12.6
			c3.6,0,6.5-1.3,9.3-4.2c0.3-0.3,0.4-0.6,0.5-0.9v-0.4c0-0.8-0.5-1.6-1.4-1.8h-0.4c-0.5,0-1,0.2-1.4,0.7c-1.7,1.9-4.1,3-6.6,3.1
			c-5-0.1-8.9-4.2-8.9-9.1C231,20.5,234.9,16.4,239.6,16.4z M239.6,16.2c0.7,0,1.3,0.1,2,0.3C240.9,16.3,240.3,16.2,239.6,16.2
			L239.6,16.2z M249,19.3c-0.3,0.3-0.8,0.5-1.2,0.5c-0.4,0-0.8-0.1-1.1-0.4h-0.1l-0.1-0.1c-0.4-0.4-0.9-0.8-1.4-1.1
			c-0.7-0.6-1.6-1-2.4-1.4c0.9,0.3,1.7,0.7,2.4,1.4c0.5,0.3,0.9,0.7,1.4,1.1l0.1,0.1h0.1c0.3,0.3,0.7,0.4,1.1,0.4
			C248.3,19.8,248.7,19.6,249,19.3c0.3-0.3,0.5-0.8,0.5-1.2l0,0C249.5,18.6,249.3,19,249,19.3L249,19.3z M239.7,38
			c-4.5,0-8.7-2.5-10.7-6.6c-1-1.8-1.5-3.9-1.5-5.9l0,0c0,2.1,0.5,4.1,1.5,5.9C231.1,35.5,235.2,38,239.7,38c1.7,0,3.4-0.3,5-0.9
			C243.2,37.7,241.5,38,239.7,38z M245.8,36.4c0.8-0.5,1.5-1,2.1-1.6C247.3,35.4,246.6,36,245.8,36.4L245.8,36.4z M249.4,33v-0.4
			l0,0V33z M231.5,21.9c-0.3,0.6-0.4,1.1-0.5,1.8c-0.1,0.6-0.2,1.3-0.1,1.9l0,0c0-0.6,0-1.3,0.1-1.9C231.1,23,231.3,22.4,231.5,21.9
			l0.8-1.6L231.5,21.9z"/>
		<path class="st0" d="M142.3,13c-6.2,0-11.4,4.7-12.1,10.9c0,0-0.2,1.1-0.2,1.6v20l0,0v0.1c0,0.3,0.1,0.6,0.3,0.8
			c0.2,0.6,0.8,1,1.5,0.9h0.4c0.4-0.1,0.8-0.3,1.1-0.7l0.1-0.1l0,0c0.1-0.1,0.1-0.4,0.3-0.7V25.6c0.1-4.8,4.1-8.5,8.9-8.4
			s8.5,4.1,8.4,8.9c-0.1,4.7-4,8.4-8.6,8.4c-0.4,0-1.2-0.1-1.6-0.1h-0.4c-1,0-1.8,0.8-1.8,1.8s0.8,1.8,1.8,1.8h0.4
			c0.6,0.1,1.2,0.1,1.8,0.1c6.8,0,12.3-5.6,12.2-12.4C154.7,18.8,149.2,13.1,142.3,13z M130.2,45.6L130.2,45.6
			c0,0.3,0.1,0.6,0.3,0.8C130.2,46.2,130.1,45.9,130.2,45.6z M132.2,47.2h-0.4c-0.5,0.1-0.9-0.2-1.2-0.5c0.3,0.3,0.8,0.5,1.2,0.5
			H132.2c0.2,0,0.4-0.1,0.5-0.3C132.6,47.1,132.4,47.2,132.2,47.2L132.2,47.2z M133.5,45.3v0.4c0,0.2-0.1,0.4-0.3,0.5l0,0
			c0,0.1-0.1,0.1-0.1,0.1l0,0c0-0.1,0.1-0.1,0.1-0.1l0,0l0,0c0.1-0.1,0.1-0.4,0.3-0.5V45.3z M133.5,42.6L133.5,42.6z M133.5,30.5
			L133.5,30.5z M150.6,22.8c-0.5-1.7-1.5-3.2-2.8-4.3c-1.6-1.3-3.5-2-5.5-2c-4.2,0-7.8,3-8.5,7.1c0.1-0.8,0.4-1.7,0.8-2.4
			c2.2-4.2,7.4-5.9,11.6-3.7c1.6,0.8,2.9,2.1,3.7,3.7C150.2,21.8,150.4,22.3,150.6,22.8c0.3,0.9,0.4,1.8,0.4,2.7l0,0
			C151,24.6,150.9,23.7,150.6,22.8L150.6,22.8z M138.5,36.2c0.1,0.6,0.6,1.2,1.2,1.3C139.1,37.3,138.6,36.8,138.5,36.2z M140.7,37.6
			L140.7,37.6c0.5,0.1,1.1,0.2,1.6,0.1C141.8,37.8,141.2,37.7,140.7,37.6L140.7,37.6z M150,34.9c-0.9,0.8-1.9,1.4-3,1.9
			c-0.7,0.3-1.5,0.5-2.3,0.7c0.8-0.1,1.6-0.4,2.3-0.7C148.1,36.3,149.1,35.7,150,34.9c0.9-0.7,1.7-1.6,2.3-2.7
			C151.7,33.3,150.9,34.2,150,34.9z M153,31.3c1-1.8,1.5-3.9,1.5-5.9l0,0C154.5,27.5,153.9,29.5,153,31.3L153,31.3z"/>
		<path class="st0" d="M176.4,15.8c-1.8-1.8-4.4-2.7-7.8-2.7c-2.7,0-5.4,0.6-7.8,1.8l0,0c-0.7,0.3-1.2,0.9-1.2,1.6v0.4
			c0.1,0.8,0.9,1.4,1.8,1.4h0.4c0.1,0,0.1,0,0.3-0.1h0.1c1.9-0.9,4-1.5,6.2-1.5h0.1c4.4,0,6.7,2,6.7,6.1v7.4c0,1.2-0.4,2.3-1.2,3.1
			c-1.5,1.4-3.5,2.1-5.5,2h-0.1c-3.6,0-6.7-2.3-6.7-5.1c0-1.2,0.5-2.3,1.4-3.1c1.5-1.4,3.4-2.1,5.4-2c0.8,0,1.5,0.1,2.3,0.3h0.5
			c0.3,0,0.6-0.1,0.8-0.3c0.1-0.1,0.3-0.1,0.4-0.3c0.3-0.3,0.5-0.7,0.5-1.2l0,0v-0.3c0-0.1,0-0.1-0.1-0.3l0,0c0-0.1-0.1-0.1-0.1-0.1
			l0,0c-0.2-0.3-0.5-0.6-0.8-0.7c-0.1,0-0.3-0.1-0.4-0.1l0,0c-1-0.3-2-0.4-3-0.4c-5.8,0-10.4,3.9-10.4,8.8s4.7,8.8,10.4,8.8
			c5.2,0,9.7-3.2,10.4-7.3v-9.5C178.9,20,178.1,17.6,176.4,15.8z M175.3,21.3c0-0.1-0.1-0.3-0.1-0.4S175.3,21.1,175.3,21.3
			L175.3,21.3z M175,20c0-0.1-0.1-0.3-0.3-0.4C174.9,19.7,174.9,19.9,175,20z M174.5,18.9c-0.1-0.1-0.3-0.3-0.3-0.4
			C174.2,18.6,174.3,18.8,174.5,18.9z M171.5,16.9c-0.2-0.1-0.4-0.1-0.7-0.1C171,16.9,171.3,16.9,171.5,16.9L171.5,16.9z
			 M170.1,16.6L170.1,16.6z M159.8,16.5L159.8,16.5L159.8,16.5z M162,18.1c-0.1,0-0.1,0-0.3,0.1h-0.4c-0.4,0-0.8-0.1-1.1-0.4
			c0.3,0.3,0.7,0.4,1.1,0.4h0.4C161.8,18.1,161.9,18.1,162,18.1z M168.5,16.7c-1.1,0-2.2,0.1-3.2,0.4c-1.1,0.2-2.1,0.6-3.1,1.1
			c1-0.5,2-0.8,3.1-1.1C166.3,16.8,167.4,16.7,168.5,16.7z M173.2,17.9c0.1,0.1,0.3,0.1,0.4,0.3C173.5,18,173.4,17.9,173.2,17.9
			L173.2,17.9z M172.1,17.2c0.1,0.1,0.4,0.1,0.5,0.3C172.4,17.3,172.3,17.3,172.1,17.2L172.1,17.2z M163.4,33.8l-0.1-0.1L163.4,33.8
			z M168.1,35.4L168.1,35.4z M167.4,35.4L167.4,35.4z M166.8,35.2L166.8,35.2z M166.1,35.1c-0.1,0-0.1,0-0.3-0.1
			C165.9,35.1,166,35.1,166.1,35.1L166.1,35.1z M165.4,35c-0.1,0-0.1,0-0.3-0.1C165.3,34.8,165.4,34.8,165.4,35L165.4,35z
			 M164.9,34.7c-0.1,0-0.1-0.1-0.3-0.1C164.8,34.5,164.8,34.7,164.9,34.7L164.9,34.7z M164.3,34.4c-0.1,0-0.1-0.1-0.3-0.1
			C164.2,34.3,164.2,34.3,164.3,34.4L164.3,34.4z M163.8,34c-0.1,0-0.1-0.1-0.3-0.1C163.6,34,163.7,34,163.8,34L163.8,34z
			 M161.6,30.3L161.6,30.3L161.6,30.3z M163,33.4l-0.1-0.1L163,33.4z M162.6,33l-0.1-0.1C162.5,32.8,162.6,32.9,162.6,33L162.6,33z
			 M162.3,32.4c0-0.1-0.1-0.1-0.1-0.3C162.2,32.2,162.2,32.4,162.3,32.4L162.3,32.4z M162.1,32c0-0.1-0.1-0.1-0.1-0.1l0,0L162.1,32z
			 M161.8,31.5L161.8,31.5z M161.7,30.9L161.7,30.9z M161.8,29.2c0.3-1.1,1-2,1.9-2.7C162.8,27.1,162.1,28.1,161.8,29.2L161.8,29.2z
			 M172.4,24.9c-0.1,0.1-0.3,0.3-0.4,0.3c-0.3,0.1-0.5,0.2-0.8,0.1h-0.4c-0.4-0.1-0.7-0.1-1.1-0.3c0.4,0,0.7,0.1,1.1,0.3h0.4
			c0.3,0,0.5-0.1,0.8-0.1S172.3,25,172.4,24.9c0.3-0.3,0.5-0.8,0.5-1.2C172.9,24.1,172.8,24.5,172.4,24.9L172.4,24.9z M178.7,31.6
			c-0.5,3.9-4.9,7.3-10.2,7.3c-5.6,0-10.2-3.9-10.2-8.6l0,0c0,4.7,4.6,8.6,10.2,8.6C173.8,38.9,178.2,35.5,178.7,31.6v-0.7l0,0V31.6
			z"/>
		<path class="st0" d="M195.9,13h-0.7c-1.3,0.4-2.7,0.9-3.9,1.5c-1.2,0.6-2.3,1.3-3.2,2.1c-0.3,0.3-0.7,0.6-0.9,0.9
			c-1.9,1.9-3.2,3.4-3.2,6.9v11.7l0,0v0.1c0,1,0.8,1.8,1.8,1.8s1.8-0.8,1.8-1.8l0,0V25c0-2.1,0.3-3.4,3-5.6c1.6-1.4,3.5-2.3,5.5-2.7
			l0,0c0.1,0,0.3-0.1,0.4-0.1c0.7-0.3,1.2-0.9,1.2-1.6c0.1-0.9-0.5-1.7-1.3-1.9C196.1,13,196,13,195.9,13z M186.9,37.5
			c-0.3,0.3-0.8,0.5-1.2,0.5c-0.5,0-0.9-0.2-1.2-0.5c-0.3-0.3-0.5-0.8-0.5-1.2l0,0c0,0.5,0.2,0.9,0.5,1.2c0.3,0.3,0.8,0.5,1.2,0.5
			C186.1,38,186.5,37.8,186.9,37.5c0.3-0.3,0.5-0.8,0.5-1.2l0,0C187.3,36.7,187.1,37.1,186.9,37.5L186.9,37.5z M187.3,36.3
			L187.3,36.3L187.3,36.3z M187.3,25L187.3,25c-0.2-1.7,0.5-3.3,1.7-4.4C187.8,21.7,187.1,23.3,187.3,25L187.3,25z M190.4,19.3
			c0.8-0.7,1.6-1.2,2.6-1.6C192,18.1,191.1,18.7,190.4,19.3L190.4,19.3z M197.2,15.7c0.2-0.3,0.2-0.6,0.3-0.9
			C197.5,15.1,197.4,15.4,197.2,15.7L197.2,15.7z"/>
		<path class="st0" d="M257.6,7.6L257.6,7.6c0-0.3-0.1-0.7-0.3-0.9V6.5l0,0c-0.1-0.1-0.3-0.4-0.4-0.4h-0.1c-0.2-0.1-0.5-0.2-0.8-0.3
			c-1,0-1.7,0.8-1.8,1.8l0,0v28.5l0,0c0,0.9,0.8,1.7,1.7,1.8c0.3,0,0.6-0.1,0.8-0.3l0,0l0.4-0.4v-0.1l0,0c0.1-0.2,0.2-0.5,0.3-0.8
			l0,0V7.9C257.6,7.8,257.6,7.8,257.6,7.6L257.6,7.6z M257.2,37.2L257.2,37.2c-0.1,0.2-0.3,0.4-0.5,0.5h-0.1
			c-0.1,0.1-0.3,0.1-0.4,0.1h-0.4c-0.5,0-0.9-0.2-1.2-0.5c-0.3-0.3-0.5-0.8-0.5-1.2l0,0c0,0.5,0.2,0.9,0.5,1.2
			c0.3,0.3,0.8,0.5,1.2,0.5h0.4c0.1,0,0.3-0.1,0.4-0.1h0.1C257,37.7,257.1,37.5,257.2,37.2z M257.5,36.7v-0.4l0,0V36.7z M257.5,36.3
			L257.5,36.3L257.5,36.3z"/>
		<path class="st0" d="M212.4,16.9h0.7c0.4-0.2,0.7-0.5,0.9-0.9l0,0v-0.1l0,0v-0.3l0,0v-0.1c0-1-0.8-1.7-1.8-1.8h-6.5V8.2l0,0
			c0-0.6-0.3-1.1-0.7-1.5c-0.3-0.3-0.7-0.4-1.1-0.4c-0.9,0-1.7,0.8-1.7,1.7v0.1l0,0v23.2c0,4.3,2.7,7.1,7.1,7.1
			c1.2,0,2.4-0.3,3.5-0.7h0.1c0.9-0.4,1.3-1.4,0.9-2.3c-0.2-0.4-0.5-0.8-0.9-0.9c-0.2-0.1-0.4-0.2-0.7-0.1c-0.2,0-0.4,0-0.5,0.1
			h-0.3c-0.1,0-0.1,0.1-0.3,0.1c-0.5,0.2-1,0.3-1.5,0.3c-1.5,0-2.6-0.3-3.1-0.9c-0.6-0.8-0.9-1.8-0.8-2.8V16.9H212.4z M213.1,16.6
			L213.1,16.6c0.3-0.1,0.6-0.3,0.8-0.5C213.7,16.3,213.4,16.5,213.1,16.6L213.1,16.6z M214.2,15.3V15l0,0V15.3z M202.3,30.9
			L202.3,30.9c0,0.5,0,1,0.1,1.5C202.3,31.9,202.3,31.4,202.3,30.9z M202.6,33.2c0.2,0.9,0.6,1.7,1.2,2.4
			C203.3,34.9,202.9,34.1,202.6,33.2L202.6,33.2z M213.1,37.2l-0.1,0.1c-1.1,0.4-2.3,0.6-3.5,0.7c-1.5,0.1-2.9-0.3-4.2-1
			c-0.4-0.3-0.7-0.5-1.1-0.8c0.3,0.3,0.7,0.6,1.1,0.8c2.4,1.3,5.2,1.4,7.7,0.4C212.9,37.3,212.9,37.3,213.1,37.2
			c0.5-0.1,0.8-0.5,0.9-1C213.8,36.6,213.5,37,213.1,37.2L213.1,37.2z"/>
		<circle class="st0" cx="220.4" cy="7.6" r="2.1"/>
		<path class="st0" d="M220.4,13.1c-1,0-1.7,0.8-1.8,1.8l0,0v21.4c0,1,0.8,1.8,1.8,1.8s1.8-0.8,1.8-1.8v-0.1l0,0V14.5
			C222,13.6,221.2,13.1,220.4,13.1z M218.7,36L218.7,36L218.7,36z M221.6,37.5c-0.3,0.3-0.8,0.5-1.2,0.5c-0.5,0-0.9-0.2-1.2-0.5
			c-0.3-0.3-0.5-0.8-0.5-1.2l0,0c0,0.5,0.2,0.9,0.5,1.2c0.3,0.3,0.8,0.5,1.2,0.5c0.9,0,1.7-0.8,1.8-1.8l0,0
			C222.1,36.8,221.9,37.2,221.6,37.5z M222.1,35.8L222.1,35.8z"/>
		<path class="st0" d="M274.3,12.7c-6.5,0-11.6,5.6-11.6,12.8s5.1,12.6,12,12.6c3.6,0.1,7-1.3,9.4-3.9v-0.1l0,0
			c0.4-0.3,0.6-0.7,0.5-1.2c0-1-0.8-1.7-1.8-1.8c-0.3,0-0.6,0-0.8,0.1l0,0c-0.1,0-0.1,0.1-0.1,0.1c0,0,0,0,0,0
			c-0.1,0.1-0.3,0.1-0.4,0.3c-1.7,1.9-4.2,3-6.7,3c-4.2,0.1-7.8-3.1-8.3-7.3c-0.1-0.7-0.1-1.3-0.1-2c0-0.6,0-1.2,0.1-1.8
			c0.5-2.8,2.2-5.1,4.7-6.5c0.2-0.1,0.4-0.2,0.5-0.3c0.8-0.3,1.6-0.5,2.4-0.5c2-0.1,3.9,0.6,5.2,2c0.8,0.9,1.5,2,2,3.1
			c0.3,0.6,0.5,1.3,0.5,2h-10.5c-1,0-1.7,0.8-1.8,1.8c0,0.2,0,0.5,0.1,0.7v0.1l0,0v0.1c0.3,0.5,0.9,0.8,1.5,0.8h12.1
			c0.3,0,0.6,0,0.8-0.1h0.1c0.1,0,0.1-0.1,0.1-0.1c0,0,0,0,0,0c0.1,0,0.1-0.1,0.1-0.1c0,0,0,0,0,0l0,0l0.1-0.1l0,0
			c0.3-0.3,0.5-0.8,0.5-1.2C285.5,18,280.8,12.7,274.3,12.7z M282,23.6L282,23.6z M262.9,25.5L262.9,25.5c-0.1,2.5,0.6,5,2,7.1
			C263.5,30.5,262.8,28,262.9,25.5L262.9,25.5z M274.7,38c-3.6,0-7-1.6-9.1-4.4C267.7,36.4,271.1,38.1,274.7,38
			c2.6,0.1,5.1-0.7,7.3-2.1C279.9,37.3,277.3,38.1,274.7,38z M284.6,33.4c0.1-0.2,0.2-0.4,0.1-0.7l0,0
			C284.7,33.1,284.6,33.2,284.6,33.4L284.6,33.4z M269.5,18c-1.7,1.4-2.8,3.4-3.2,5.5c-0.1,0.4-0.1,0.9-0.1,1.4c0-0.5,0-0.9,0.1-1.4
			C266.7,21.4,267.9,19.5,269.5,18c0.5-0.4,1-0.8,1.6-1.1C270.6,17.3,270,17.6,269.5,18z M278.5,17.5c-0.8-0.5-1.7-0.9-2.7-1.1
			C276.8,16.5,277.7,16.9,278.5,17.5c0.3,0.2,0.7,0.5,0.9,0.8C279.1,18,278.8,17.7,278.5,17.5L278.5,17.5z M281.5,21.5
			c-0.1-0.3-0.3-0.7-0.4-0.9c-0.3-0.6-0.6-1.1-1.1-1.6c0.4,0.5,0.8,1,1.1,1.6C281.3,20.8,281.5,21.1,281.5,21.5
			c0.2,0.5,0.4,1,0.4,1.5C281.9,22.4,281.7,21.9,281.5,21.5L281.5,21.5z M269.8,25.2L269.8,25.2L269.8,25.2z M284.8,26.6
			C284.8,26.7,284.7,26.7,284.8,26.6c-0.1,0.1-0.2,0.1-0.3,0.1h-0.1c-0.3,0.1-0.5,0.2-0.8,0.1l0,0c0.3,0,0.6,0,0.8-0.1h0.1
			C284.7,26.7,284.8,26.7,284.8,26.6C284.7,26.7,284.8,26.7,284.8,26.6l0.1-0.1C285,26.5,284.9,26.6,284.8,26.6
			C284.9,26.6,284.8,26.6,284.8,26.6L284.8,26.6z M285.5,25.6v-0.4l0,0V25.6z"/>
	</g>
	<g>
		<path class="st1" d="M51.2,25.8L51.2,25.8l-5.5-5.6c-0.6-0.7-1.5-1.1-2.4-1.1l0,0c-0.9,0-1.8,0.4-2.4,1.1l-8.2,8.6l-8.2-8.6
			c-0.6-0.7-1.5-1.1-2.4-1.1c-0.9,0-1.7,0.4-2.4,0.9l-11,11.2c-1.3,1.3-1.4,3.5,0,4.8c0,0,0,0,0,0c0.6,0.6,1.5,1,2.4,0.9
			c0.9,0,1.7-0.4,2.4-1l8.6-8.6l8.2,8.6c1.2,1.3,3.3,1.4,4.6,0.2c0.1-0.1,0.1-0.1,0.2-0.2l8.2-8.6l3.2,3.2l0,0l0.1,0.1
			c1.3,1.3,3.5,1.4,4.8,0c0,0,0,0,0,0C52.6,29.2,52.5,27.1,51.2,25.8L51.2,25.8z"/>
		<path class="st1" d="M70.2,20.5L59.2,9.6c-1.4-1.3-3.5-1.3-4.8,0.1c-1.3,1.3-1.3,3.4,0,4.8l8.5,8.5l-6.2,6l-2.6,2.6
			c-1.3,1.3-1.4,3.5,0,4.8c0,0,0,0,0,0c0.5,0.6,1.2,0.9,2,0.9h0.4c0.9,0,1.8-0.3,2.5-0.9l11.2-11.2c0.6-0.6,1-1.5,0.9-2.4
			C71.1,22,70.8,21.1,70.2,20.5z"/>
	</g>
</g>
</svg>
