<?xml version="1.0" encoding="utf-8"?>
<!-- Generator: Adobe Illustrator 19.0.0, SVG Export Plug-In . SVG Version: 6.00 Build 0)  -->
<!DOCTYPE svg PUBLIC "-//W3C//DTD SVG 1.1//EN" "http://www.w3.org/Graphics/SVG/1.1/DTD/svg11.dtd">
<svg version="1.1" id="Layer_1" xmlns="http://www.w3.org/2000/svg" xmlns:xlink="http://www.w3.org/1999/xlink" x="0px" y="0px"
     viewBox="0 0 480.7 190.2" style="enable-background:new 0 0 480.7 190.2;" xml:space="preserve">
<style type="text/css">
    .st0{fill:#47C6E7;}
    .st1{fill:#D63C95;}
    .st2{fill:#B5D33D;}
    .st3{fill:#FFA61B;}
</style>
<path d="M231.7,151.4c-9.5,0-17.9-4.5-23.5-12.2v32.7c0,2.7-2.4,5.2-5.5,5.2c-2.9,0-5.3-2.4-5.3-5.2V84.5c0-2.7,2.4-5.2,5.6-5.2
    c2.7,0,5.2,2.4,5.2,5.2v6c5-7.1,13.7-12.1,23.5-12.1c18.3,0,31,13.8,31,36.4C262.7,137.3,250,151.4,231.7,151.4z M229,88.1
    c-8.5,0-17,5-20.7,11.1v31.4c3.7,6,12.2,11.2,20.7,11.2c14,0,22.3-11.5,22.3-26.9S242.9,88.1,229,88.1z"/>
<path d="M332.9,86.5l-32.3,77.3c-4.2,9.9-11.5,14.1-20.4,14.1c-3.7,0-8.5-0.3-8.5-4.9c0-2.9,2.3-4.9,4.8-4.9c1.3,0,2.4,0.1,3.6,0.1
    c4.3,0.1,7.6-1.6,10.2-7.3l4.6-10.5l-26.5-63.9c-0.3-0.6-0.4-1.3-0.4-1.9c0-2.7,2.3-5.3,5.5-5.3c2.2,0,4.2,1.2,5,3.3l22.2,54.6
    l22-54.6c0.9-2,2.9-3.3,5-3.3c3.2,0,5.6,2.4,5.6,5.3C333.4,85.2,333.2,85.9,332.9,86.5z"/>
<path d="M389.2,149.7H344c-2.7,0-4.9-2.3-4.9-5.5c0-1.3,0.6-2.6,1.3-3.6l37.7-51h-34.6c-2.6,0-4.6-2-4.6-4.9c0-2.6,2-4.6,4.6-4.6
    h44.6c2.4,0,4.8,2.2,4.8,5.3c0,1.3-0.4,2.4-1.2,3.5l-38.2,51.4h35.6c2.4,0,4.5,2,4.5,4.5C393.7,147.7,391.7,149.7,389.2,149.7z"/>
<path d="M461.5,118.4h-50.3c0.9,13.1,10.1,24,25.1,24c6.6,0,13.2-2.2,18.7-6.5c0.7-0.4,1.6-0.7,2.4-0.7c1.9,0,4.3,1.7,4.3,4.5
    c0,7.5-18,11.7-26.5,11.7c-20.6,0-35.4-14.8-35.4-36.6c0-20.2,14.4-36.4,34.3-36.4c17.3,0,28.7,10.9,32.3,26.9c0.4,2.2,1,4.8,1,7.2
    C467.4,115.7,464.8,118.4,461.5,118.4z M434,87.3c-14.8,0-22.2,12.5-22.8,23.2h45.6C456.8,100.2,449.9,87.3,434,87.3z"/>
<g id="XMLID_168_">
    <path id="XMLID_178_" class="st0" d="M120.5,101.9c1.4-5.1,3.3-9.8,5.5-14.3c20.9,0.3,40.3-5.5,48.6-15.9
        c5.1-6.4,5.8-14.1,1.8-21.3l0-0.1c-4-7.1-11-10.7-19.1-9.7c-7.9,0.9-16.6,6-24.9,14.3c-2.8,2.8-5.4,5.8-7.8,9
        c-2.3,3-4.5,6.2-6.5,9.5c0,0,0,0-0.1,0c-2.5,4.1-4.7,8.4-6.7,12.9c0,0,0.1,0,0.1,0c-1.6,3.8-3,7.8-4.2,11.7c-1.1,3.9-2,8-2.6,12
        c4.5,1.9,8.8,4.1,12.9,6.5C118.2,111.9,119.1,106.9,120.5,101.9z M158.9,54.3c1-0.1,1.8-0.1,2.5,0.1c1.2,0.4,2.2,1.2,3,2.7
        c1.2,2.3,1.1,4-0.6,6.1c-4.4,5.5-15.8,9.5-29.5,10.6C142.9,62.2,152.6,55.1,158.9,54.3z"/>
    <path id="XMLID_175_" class="st1" d="M72.1,88c-1.4,5.1-3.3,9.8-5.5,14.3c-20.9-0.3-40.3,5.5-48.6,15.9c-5.1,6.4-5.8,14.1-1.8,21.3
        l0,0.1c4,7.1,11,10.7,19.1,9.7c7.9-0.9,16.6-6,24.9-14.3c2.8-2.8,5.4-5.8,7.8-9c2.3-3,4.5-6.2,6.5-9.5c0,0,0,0,0.1,0
        c2.5-4.1,4.7-8.4,6.7-12.9c0,0-0.1,0-0.1,0c1.6-3.8,3-7.8,4.2-11.7c1.1-3.9,2-8,2.6-12c-4.5-1.9-8.8-4.1-12.9-6.5
        C74.4,78,73.5,83,72.1,88z M33.7,135.6c-1,0.1-1.8,0.1-2.5-0.1c-1.2-0.4-2.2-1.2-3-2.7c-1.2-2.3-1.1-4,0.6-6.1
        c4.4-5.5,15.8-9.5,29.5-10.6C49.7,127.7,40,134.8,33.7,135.6z"/>
    <path id="XMLID_172_" class="st2" d="M89.3,119.2c5.1,1.4,9.8,3.3,14.3,5.5c-0.3,20.9,5.5,40.3,15.9,48.6
        c6.4,5.1,14.1,5.8,21.3,1.8l0.1,0c7.1-4,10.7-11,9.7-19.1c-0.9-7.9-6-16.6-14.3-24.9c-2.8-2.8-5.8-5.4-9-7.8
        c-3-2.3-6.2-4.5-9.5-6.5c0,0,0,0,0-0.1c-4.1-2.5-8.4-4.7-12.9-6.7c0,0,0,0.1,0,0.1c-3.8-1.6-7.8-3-11.7-4.2c-3.9-1.1-8-2-12-2.6
        c-1.9,4.5-4.1,8.8-6.5,12.9C79.4,116.9,84.3,117.8,89.3,119.2z M136.9,157.6c0.1,1,0.1,1.8-0.1,2.5c-0.4,1.2-1.2,2.2-2.7,3
        c-2.3,1.2-4,1.1-6.1-0.6c-5.5-4.4-9.5-15.8-10.6-29.5C129,141.6,136.2,151.3,136.9,157.6z"/>
    <path id="XMLID_169_" class="st3" d="M103.3,70.7c-5.1-1.4-9.8-3.3-14.3-5.5c0.3-20.9-5.5-40.3-15.9-48.6
        c-6.4-5.1-14.1-5.8-21.3-1.8l-0.1,0c-7.1,4-10.7,11-9.7,19.1c0.9,7.9,6,16.6,14.3,24.9c2.8,2.8,5.8,5.4,9,7.8
        c3,2.3,6.2,4.5,9.5,6.5c0,0,0,0,0,0.1c4.1,2.5,8.4,4.7,12.9,6.7c0,0,0-0.1,0-0.1c3.8,1.6,7.8,3,11.7,4.2c3.9,1.1,8,2,12,2.6
        c1.9-4.5,4.1-8.8,6.5-12.9C113.2,73,108.2,72.1,103.3,70.7z M55.6,32.3c-0.1-1-0.1-1.8,0.1-2.5c0.4-1.2,1.2-2.2,2.7-3
        c2.3-1.2,4-1.1,6.1,0.6C70,31.6,74,43,75.1,56.8C63.6,48.3,56.4,38.5,55.6,32.3z"/>
</g>
</svg>
