<svg id="Layer_1" data-name="Layer 1" xmlns="http://www.w3.org/2000/svg" viewBox="0 0 160 90"><defs><style>.cls-1{fill:#15ca55;}.cls-2{fill:#fff;}</style></defs><title>twenty-three</title><rect class="cls-1" width="160" height="90"/><path class="cls-2" d="M77.4,69.72a0.33,0.33,0,0,1-.3.36H45.25a0.34,0.34,0,0,1-.36-0.36V63.18a1.26,1.26,0,0,1,.36-0.93L64.31,43.33c1.21-1.14,4.7-4.48,4.63-8.39-0.07-3.34-2.28-7.75-7.83-7.75a7.8,7.8,0,0,0-7.75,7.75,0.33,0.33,0,0,1-.31.35h-7.8A0.34,0.34,0,0,1,44.89,35s0,0,0,0c0-8.82,6.76-15.65,16.22-15.65,10.24,0,16.36,6.9,16.36,15.65,0,7.33-4.48,11.81-7,14.15L56.92,61.61a0.36,0.36,0,0,0,.21.64H77.05a0.34,0.34,0,0,1,.35.33s0,0,0,0v7.11Z"/><path class="cls-2" d="M98.6,19.29c9.54,0,15.94,6.69,15.94,14.8a11.91,11.91,0,0,1-5.91,10.31,0.38,0.38,0,0,0,0,.71,12.88,12.88,0,0,1,6.55,11.17c0,7.68-5.34,14.44-16.58,14.51-10.88,0-16.14-7.18-16.14-15.22a0.33,0.33,0,0,1,.3-0.36h7.88a0.33,0.33,0,0,1,.35.36A7.6,7.6,0,0,0,98.6,63c4.77,0,8-3.42,8-6.69,0-5.34-3.84-7.54-8-7.61H96.26a0.34,0.34,0,0,1-.36-0.36V41.2a0.34,0.34,0,0,1,.32-0.36H98.6c3.7,0,7.4-2,7.4-6.75a7.26,7.26,0,0,0-7.4-7c-4.41,0-7.32,4.13-7.32,7.83a0.33,0.33,0,0,1-.31.35h-7.8A0.34,0.34,0,0,1,82.81,35s0,0,0,0C82.81,26.12,89.14,19.29,98.6,19.29Z"/></svg>