<svg id="Layer_1" data-name="Layer 1" xmlns="http://www.w3.org/2000/svg" width="279.67" height="63" viewBox="0 0 279.67 63">
  <defs>
    <style>
      .cls-1 {
        fill: #1bd9c4;
      }
    </style>
  </defs>
  <title>willowtree_logo</title>
  <g>
    <g>
      <path class="cls-1" d="M57.66,18.79A29.83,29.83,0,0,0,30.48,1.21a29.45,29.45,0,0,0-9,1.41l2.47,5.23a23.88,23.88,0,0,1,19,2.57L36.3,34,29.15,18.89,22.86,34l-4.6-10.78L15.42,29.3,22.5,46l6.68-14.8,8.42,18L48.86,15.47a24,24,0,0,1-4.63,35.28L46.7,56a29.78,29.78,0,0,0,11-37.18"/>
      <path class="cls-1" d="M39.52,53.28A24,24,0,0,1,19.17,9.78L16.74,4.59a29.77,29.77,0,0,0,13.8,56.18,29.56,29.56,0,0,0,11.41-2.3Z"/>
    </g>
    <g>
      <g>
        <polygon class="cls-1" points="89.51 33.43 86.19 22.87 84.58 22.87 81.25 33.45 77.91 22.87 75.55 22.87 80.37 38.19 82 38.19 85.35 27.64 88.67 38.19 90.32 38.19 95.21 22.87 92.86 22.87 89.51 33.43"/>
        <rect class="cls-1" x="104.21" y="22.87" width="2.3" height="15.32"/>
        <polygon class="cls-1" points="118.95 22.87 116.65 22.87 116.65 38.19 125.61 38.19 125.61 36.12 118.95 36.12 118.95 22.87"/>
        <polygon class="cls-1" points="136.94 22.87 134.64 22.87 134.64 38.19 143.6 38.19 143.6 36.12 136.94 36.12 136.94 22.87"/>
        <path class="cls-1" d="M164.82,24.91a7.75,7.75,0,0,0-2.51-1.67,8.2,8.2,0,0,0-3.17-.61,7.94,7.94,0,0,0-3.1.61,7.66,7.66,0,0,0-4.17,4.16,8.32,8.32,0,0,0,0,6.25,7.9,7.9,0,0,0,1.68,2.51,7.72,7.72,0,0,0,2.51,1.67,8.11,8.11,0,0,0,3.1.6,7.93,7.93,0,0,0,3.08-.61,7.77,7.77,0,0,0,2.51-1.68,7.9,7.9,0,0,0,2.3-5.64,8.13,8.13,0,0,0-.59-3.1A7.62,7.62,0,0,0,164.82,24.91Zm0,5.59a6.08,6.08,0,0,1-.44,2.35,5.62,5.62,0,0,1-1.21,1.83,5.44,5.44,0,0,1-1.78,1.19,5.78,5.78,0,0,1-4.38,0,5.59,5.59,0,0,1-1.79-1.2A5.69,5.69,0,0,1,154,32.82a6,6,0,0,1-.44-2.31,6.13,6.13,0,0,1,.42-2.29,5.59,5.59,0,0,1,1.17-1.82,5.36,5.36,0,0,1,1.77-1.2,5.69,5.69,0,0,1,2.24-.44,5.83,5.83,0,0,1,2.27.44,5.41,5.41,0,0,1,3,3A6,6,0,0,1,164.78,30.49Z"/>
        <polygon class="cls-1" points="191.6 22.87 190.75 22.87 187.4 33.43 184.08 22.87 182.47 22.87 179.13 33.45 175.8 22.87 173.44 22.87 178.25 38.19 179.88 38.19 183.24 27.64 186.56 38.19 188.21 38.19 192.43 24.95 202.4 24.95 202.4 38.19 204.72 38.19 204.72 24.95 209.27 24.95 210.19 22.87 193.09 22.87 191.6 22.87"/>
        <path class="cls-1" d="M223.61,31.65a5.37,5.37,0,0,0,1.68-.92,4.63,4.63,0,0,0,1.17-1.44,4,4,0,0,0,.44-1.89,4.16,4.16,0,0,0-.42-1.86,4.35,4.35,0,0,0-1.15-1.45,5.3,5.3,0,0,0-1.7-.92,6.65,6.65,0,0,0-2.08-.32h-4.81V38.19H219V31.92l6,6.28h3.07l-6-6.25A6.24,6.24,0,0,0,223.61,31.65Zm.71-5.23a2,2,0,0,1,.22.95,2.57,2.57,0,0,1-.24,1.15,2.25,2.25,0,0,1-.67.8,3.36,3.36,0,0,1-1.06.51,4.83,4.83,0,0,1-1.35.18H219V24.95h2.34a4.37,4.37,0,0,1,1.32.19,2.94,2.94,0,0,1,1,.52A2.4,2.4,0,0,1,224.32,26.42Z"/>
        <polygon class="cls-1" points="239 31.43 245.42 31.43 245.42 29.35 239 29.35 239 24.95 245.85 24.95 245.85 22.87 236.7 22.87 236.7 38.19 246.26 38.19 246.26 36.12 239 36.12 239 31.43"/>
        <polygon class="cls-1" points="258.11 31.43 264.54 31.43 264.54 29.35 258.11 29.35 258.11 24.95 264.97 24.95 264.97 22.87 255.81 22.87 255.81 38.19 265.38 38.19 265.38 36.12 258.11 36.12 258.11 31.43"/>
      </g>
      <path class="cls-1" d="M276.83,24.54a3,3,0,0,0-.63-.93,3,3,0,0,0-.94-.63A3,3,0,0,0,273,23a3,3,0,0,0-.93.63,2.92,2.92,0,0,0-.63.93,2.94,2.94,0,0,0,0,2.28A3,3,0,0,0,273,28.39a2.94,2.94,0,0,0,2.28,0,3,3,0,0,0,.94-.63,3,3,0,0,0,.63-.94,2.94,2.94,0,0,0,0-2.28Zm-.57,2.05a2.34,2.34,0,0,1-.5.73l0,0L274.53,26l.18-.06a1.05,1.05,0,0,0,.33-.22,1.11,1.11,0,0,0,.23-.33,1,1,0,0,0,.08-.41,1.13,1.13,0,0,0-.08-.42,1,1,0,0,0-.23-.34,1.08,1.08,0,0,0-.36-.23,1.23,1.23,0,0,0-.45-.08H273v3.5h.7V26l1.11,1.29,0,0h.86a2.43,2.43,0,0,1-.7.46,2.33,2.33,0,0,1-1.8,0,2.42,2.42,0,0,1-.74-.5,2.35,2.35,0,0,1-.5-.74,2.31,2.31,0,0,1,0-1.81,2.37,2.37,0,0,1,1.24-1.24,2.25,2.25,0,0,1,.9-.18,2.23,2.23,0,0,1,.9.18,2.37,2.37,0,0,1,1.24,1.24,2.32,2.32,0,0,1,0,1.81Zm-1.76-1.33a.53.53,0,0,1-.36.12h-.42v-.86h.48a.42.42,0,0,1,.18,0,.46.46,0,0,1,.14.1.33.33,0,0,1,.09.13.31.31,0,0,1,0,.13A.43.43,0,0,1,274.51,25.27Z"/>
    </g>
  </g>
</svg>
